# xmcd CD database file
#
# Track frame offsets:
#	150
#	12043
#	20486
#	32837
#	44706
#	56215
#	66445
#	76884
#	88673
#	100066
#	109941
#	120909
#	132087
#	142873
#	153516
#	163287
#	176420
#	186757
#	196342
#	206193
#	215709
#	226042
#	236040
#	246667
#	259829
#	270392
#	281080
#	291048
#	302151
#	311881
#	320849
#
# Disc length: 4418 seconds
#
# Revision: 0
# Processed by: cddbd v1.5.2PL0 Copyright (c) Steve Scherf et al.
# Submitted via: CDex 1.51
#
DISCID=d211401f
DTITLE=Johnny Horton - Singles Collection 1950-60 D1 of 2
DYEAR=1900
DGENRE=Country
TTITLE0=Why in the Dickens Don't You Milk That Cow?
TTITLE1=Candy Jones
TTITLE2=Happy Millionaire
TTITLE3=Plaid and Calico
TTITLE4=Birds and Butterflies
TTITLE5=Coal Smoke, Valve Oil and Steam
TTITLE6=Go and Wash (Those Dirty Feet)
TTITLE7=Shasows on the Old Bayou
TTITLE8=Smokey Joe's Barbeque
TTITLE9=Its a Long Rocky Road
TTITLE10=On the Banks of the Beaufiful Nile
TTITLE11=Somebody's Rockin' My Broken Heart
TTITLE12=Rhythm in My Baby's Walk
TTITLE13=First Train Headin' South
TTITLE14=The Rest of Your Life
TTITLE15=The Child's Side of Life
TTITLE16=Tennessee Jive
TTITLE17=I Won't Get Dreamy-Eyed
TTITLE18=Two Red Lips and Warm Red Wine
TTITLE19=Broken Hearted Gypsy
TTITLE20=Move on Down the Line
TTITLE21=The Door of Your Mansion
TTITLE22=No True Love
TTITLE23=There'll Never Be Another Mary
TTITLE24=Ridin' the Sunshine Special
TTITLE25=Big Wheels Rollin'
TTITLE26=Honky-Tonk Man
TTITLE27=I'm Ready, If You're Willing
TTITLE28=I Don't Like I Did
TTITLE29=I'm a One Woman Man
TTITLE30=I Got a Hole in My Pirogue
EXTD=
EXTT0=
EXTT1=
EXTT2=
EXTT3=
EXTT4=
EXTT5=
EXTT6=
EXTT7=
EXTT8=
EXTT9=
EXTT10=
EXTT11=
EXTT12=
EXTT13=
EXTT14=
EXTT15=
EXTT16=
EXTT17=
EXTT18=
EXTT19=
EXTT20=
EXTT21=
EXTT22=
EXTT23=
EXTT24=
EXTT25=
EXTT26=
EXTT27=
EXTT28=
EXTT29=
EXTT30=
PLAYORDER=
